<svg aria-hidden="true" style="position: absolute; width: 0; height: 0; overflow: hidden;" version="1.1" xmlns="http://www.w3.org/2000/svg" xmlns:xlink="http://www.w3.org/1999/xlink">
<defs>
<symbol id="instagram" viewBox="0 0 32 32">
<path d="M30.793 1.209c-0.806-0.806-1.771-1.209-2.896-1.209h-23.792c-1.125 0-2.090 0.403-2.896 1.209s-1.208 1.771-1.208 2.896v23.792c0 1.125 0.403 2.090 1.208 2.896s1.771 1.209 2.896 1.209h23.792c1.124 0 2.090-0.403 2.896-1.209s1.208-1.771 1.208-2.896v-23.792c-0-1.125-0.402-2.090-1.208-2.896zM11.491 11.531c1.257-1.215 2.767-1.823 4.531-1.823 1.778 0 3.295 0.608 4.552 1.823s1.885 2.684 1.885 4.406c0 1.722-0.628 3.191-1.885 4.406s-2.774 1.823-4.552 1.823c-1.764 0-3.274-0.608-4.531-1.823s-1.886-2.684-1.886-4.406c0-1.722 0.629-3.191 1.886-4.406zM28.377 27.042c0 0.361-0.125 0.663-0.375 0.906s-0.549 0.365-0.896 0.365h-22.27c-0.361 0-0.663-0.122-0.906-0.365s-0.365-0.545-0.365-0.906v-13.5h2.937c-0.278 0.875-0.417 1.785-0.417 2.729 0 2.667 0.972 4.941 2.917 6.823s4.285 2.823 7.021 2.823c1.806 0 3.472-0.431 5-1.292s2.735-2.031 3.625-3.511c0.889-1.479 1.333-3.094 1.333-4.844 0-0.944-0.139-1.854-0.417-2.729h2.813v13.5l-0-0zM28.377 8.437c0 0.403-0.139 0.743-0.417 1.021s-0.618 0.417-1.021 0.417h-3.625c-0.403 0-0.743-0.139-1.021-0.417s-0.416-0.618-0.416-1.021v-3.437c0-0.389 0.139-0.726 0.416-1.010s0.618-0.427 1.021-0.427h3.625c0.403 0 0.743 0.142 1.021 0.427s0.417 0.622 0.417 1.010v3.437z"></path>
</symbol>
<symbol id="printeres" viewBox="0 0 27 32">
<path d="M13.974 0c-8.77 0-13.435 5.62-13.435 11.749 0 2.842 1.588 6.386 4.13 7.51 0.386 0.174 0.596 0.1 0.682-0.258 0.076-0.272 0.41-1.582 0.572-2.2 0.050-0.198 0.024-0.37-0.136-0.556-0.844-0.976-1.514-2.754-1.514-4.422 0-4.274 3.398-8.424 9.18-8.424 5 0 8.498 3.248 8.498 7.894 0 5.25-2.778 8.882-6.388 8.882-1.998 0-3.486-1.568-3.014-3.508 0.57-2.31 1.688-4.794 1.688-6.46 0-1.494-0.844-2.73-2.568-2.73-2.034 0-3.684 2.014-3.684 4.718 0 1.718 0.608 2.878 0.608 2.878s-2.012 8.128-2.386 9.646c-0.632 2.57 0.086 6.732 0.148 7.090 0.038 0.198 0.26 0.26 0.384 0.098 0.198-0.26 2.63-3.73 3.312-6.238 0.248-0.914 1.266-4.62 1.266-4.62 0.67 1.21 2.604 2.224 4.664 2.224 6.128 0 10.556-5.386 10.556-12.070-0.022-6.408-5.506-11.203-12.565-11.203z"></path>
</symbol>
<symbol id="twitter" viewBox="0 0 38 32">
<path d="M37.818 4.274c-1.406 0.617-2.905 1.026-4.467 1.224 1.607-0.96 2.834-2.468 3.411-4.285-1.498 0.893-3.153 1.525-4.916 1.877-1.423-1.515-3.451-2.453-5.663-2.453-4.292 0-7.748 3.484-7.748 7.755 0 0.615 0.052 1.205 0.18 1.768-6.446-0.314-12.149-3.404-15.981-8.11-0.669 1.161-1.061 2.489-1.061 3.919 0 2.685 1.383 5.065 3.444 6.443-1.246-0.024-2.468-0.385-3.503-0.955 0 0.024 0 0.054 0 0.085 0 3.768 2.687 6.897 6.212 7.618-0.631 0.173-1.319 0.255-2.033 0.255-0.496 0-0.997-0.028-1.468-0.132 1.005 3.070 3.855 5.328 7.245 5.401-2.638 2.064-5.987 3.307-9.613 3.307-0.636 0-1.246-0.028-1.855-0.106 3.434 2.215 7.505 3.479 11.894 3.479 14.267 0 22.067-11.818 22.067-22.062 0-0.343-0.012-0.674-0.028-1.002 1.539-1.092 2.832-2.456 3.886-4.025z"></path>
</symbol>
<symbol id="facebook" viewBox="0 0 32 32">
<path d="M18.478 32v-14.596h4.897l0.735-5.69h-5.632v-3.632c0-1.647 0.456-2.769 2.82-2.769l3.010-0.001v-5.089c-0.521-0.068-2.308-0.223-4.388-0.223-4.343 0-7.317 2.651-7.317 7.519v4.196h-4.912v5.69h4.912v14.596h5.874z"></path>
</symbol>
</defs>
</svg>
